<svg width="30" height="30" viewBox="0 0 30 30" fill="none" xmlns="http://www.w3.org/2000/svg">
<circle cx="15" cy="15" r="15" fill="#ECECEC"/>
<path d="M22.5 14.9975C22.5 19.138 19.1423 22.4949 15 22.4949C10.8577 22.4949 7.5 19.138 7.5 14.9975C7.5 10.8569 10.8577 7.5 15 7.5C19.1423 7.5 22.5 10.8569 22.5 14.9975Z" stroke="black"/>
<path d="M14.9363 7.7959V22.3087M7.72168 14.9042H22.5306M8.48111 11.163V11.163C12.7283 12.1476 17.1443 12.1476 21.3915 11.163V11.163M8.48111 18.6454V18.6454C12.7283 17.6608 17.1444 17.6608 21.3915 18.6454V18.6454" stroke="black"/>
<path d="M18.864 14.9975C18.864 17.1387 18.3894 19.0525 17.647 20.413C16.8943 21.7925 15.9367 22.4949 15.0004 22.4949C14.064 22.4949 13.1064 21.7925 12.3537 20.413C11.6113 19.0525 11.1367 17.1387 11.1367 14.9975C11.1367 12.8562 11.6113 10.9425 12.3537 9.58189C13.1064 8.20244 14.064 7.5 15.0004 7.5C15.9367 7.5 16.8943 8.20244 17.647 9.58189C18.3894 10.9425 18.864 12.8562 18.864 14.9975Z" stroke="black"/>
</svg>
