<svg width="16" height="8" viewBox="0 0 16 8" fill="none" xmlns="http://www.w3.org/2000/svg">
<mask id="path-1-inside-1_772_6150" fill="white">
<path fill-rule="evenodd" clip-rule="evenodd" d="M7.61507 5.71429C6.97309 7.06568 5.59565 8 4 8C1.79086 8 0 6.20914 0 4C0 1.79086 1.79086 0 4 0C5.59565 0 6.97309 0.934316 7.61507 2.28571H13.7143L16 4.2449V5.71429H7.61507Z"/>
</mask>
<path d="M7.61507 5.71429V4.71429H6.98302L6.71181 5.28519L7.61507 5.71429ZM7.61507 2.28571L6.71181 2.71481L6.98302 3.28571H7.61507V2.28571ZM13.7143 2.28571L14.3651 1.52646L14.0842 1.28571H13.7143V2.28571ZM16 4.2449H17V3.78496L16.6508 3.48564L16 4.2449ZM16 5.71429V6.71429H17V5.71429H16ZM6.71181 5.28519C6.22922 6.30107 5.19524 7 4 7V9C5.99607 9 7.71696 7.8303 8.51833 6.14338L6.71181 5.28519ZM4 7C2.34315 7 1 5.65685 1 4H-1C-1 6.76142 1.23858 9 4 9V7ZM1 4C1 2.34315 2.34315 1 4 1V-1C1.23858 -1 -1 1.23858 -1 4H1ZM4 1C5.19524 1 6.22922 1.69893 6.71181 2.71481L8.51833 1.85662C7.71696 0.169697 5.99607 -1 4 -1V1ZM13.7143 1.28571H7.61507V3.28571H13.7143V1.28571ZM16.6508 3.48564L14.3651 1.52646L13.0635 3.04497L15.3492 5.00416L16.6508 3.48564ZM17 5.71429V4.2449H15V5.71429H17ZM7.61507 6.71429H16V4.71429H7.61507V6.71429Z" fill="black" mask="url(#path-1-inside-1_772_6150)"/>
<circle cx="2.85707" cy="3.99999" r="0.571429" fill="black"/>
</svg>
