<svg width="30" height="30" viewBox="0 0 30 30" fill="none" xmlns="http://www.w3.org/2000/svg">
<circle cx="15" cy="15" r="15" fill="#ECECEC"/>
<path d="M10.3983 8.19777L7.51685 8.913C7.22355 8.98581 7.03331 9.26922 7.07702 9.56824L7.24327 10.7058C7.50428 12.4915 8.11681 14.2078 9.04544 15.7553L9.4941 16.503C10.6066 18.3568 12.2076 19.8688 14.1221 20.8735C15.3241 21.5043 16.6343 21.9029 17.984 22.0483L20.7151 22.3426C21.1525 22.3897 21.5394 22.059 21.561 21.6196L21.7001 18.7913C21.7216 18.3527 21.4546 17.9514 21.0418 17.8019L18.0449 16.7164C17.5723 16.5453 17.0461 16.7515 16.8157 17.1982L16.6474 17.5242C16.3416 18.1171 15.552 18.2499 15.069 17.7898L12.0342 14.8985C11.5921 14.4773 11.6274 13.7617 12.1089 13.3861L12.6629 12.9539C13.0312 12.6666 13.1515 12.1627 12.9529 11.74L11.5442 8.74295C11.3412 8.31109 10.8614 8.08281 10.3983 8.19777Z" stroke="black"/>
<path d="M20.6787 9.44986L16.8007 13.2471" stroke="black" stroke-linecap="round"/>
<path d="M20.6787 11.8662L20.6787 9.4498L18.2109 9.4498" stroke="black" stroke-linecap="round"/>
</svg>
